<?xml version="1.0" encoding="UTF-8" standalone="no"?>
<svg
   xmlns:dc="http://purl.org/dc/elements/1.1/"
   xmlns:cc="http://creativecommons.org/ns#"
   xmlns:rdf="http://www.w3.org/1999/02/22-rdf-syntax-ns#"
   xmlns:svg="http://www.w3.org/2000/svg"
   xmlns="http://www.w3.org/2000/svg"
   xmlns:sodipodi="http://sodipodi.sourceforge.net/DTD/sodipodi-0.dtd"
   xmlns:inkscape="http://www.inkscape.org/namespaces/inkscape"
   inkscape:version="1.0 (4035a4fb49, 2020-05-01)"
   sodipodi:docname="ob_logo_correct_colour.svg"
   viewBox="0 0 888.50665 495.37332"
   height="495.37332"
   width="888.50665"
   xml:space="preserve"
   id="svg2774"
   version="1.1"><metadata
     id="metadata2780"><rdf:RDF><cc:Work
         rdf:about=""><dc:format>image/svg+xml</dc:format><dc:type
           rdf:resource="http://purl.org/dc/dcmitype/StillImage" /><dc:title /></cc:Work></rdf:RDF></metadata><defs
     id="defs2778" /><sodipodi:namedview
     inkscape:current-layer="g2782"
     inkscape:window-maximized="1"
     inkscape:window-y="32"
     inkscape:window-x="0"
     inkscape:cy="191.12718"
     inkscape:cx="406.30331"
     inkscape:zoom="1.3753414"
     showgrid="false"
     id="namedview2776"
     inkscape:window-height="1048"
     inkscape:window-width="1920"
     inkscape:pageshadow="2"
     inkscape:pageopacity="0"
     guidetolerance="10"
     gridtolerance="10"
     objecttolerance="10"
     borderopacity="1"
     bordercolor="#666666"
     pagecolor="#ffffff"
     inkscape:document-rotation="0" /><g
     transform="matrix(1.3333333,0,0,-1.3333333,0,495.37333)"
     inkscape:label="ink_ext_XXXXXX"
     inkscape:groupmode="layer"
     id="g2782"><g
       id="g4383"><path
         sodipodi:nodetypes="ccccc"
         id="path2836-9"
         style="fill:#b1aeae;fill-opacity:1;fill-rule:nonzero;stroke:none;stroke-width:0.0999997"
         d="M 249.037,92.173004 283.217,34.7281 h 71.871 L 291.974,106.321 249.037,92.173004" /><path
         id="path2786"
         style="fill:#990066;fill-opacity:1;fill-rule:nonzero;stroke:none;stroke-width:0.1"
         d="m 516.313,25.6379 c 0,0 10.626,-1.0559 10.626,-11.55 0,-10.49376 -9.305,-11.02188 -9.305,-11.02188 L 152.796,3 c 0,0 -11.154,2.17813 -11.154,11.6809 0,9.5043 8.58,10.957 8.58,10.957 h 366.091" /><path
         id="path2788"
         style="fill:none;stroke:#040606;stroke-width:6;stroke-linecap:butt;stroke-linejoin:miter;stroke-miterlimit:10;stroke-dasharray:none;stroke-opacity:1"
         d="m 516.313,25.6379 c 0,0 10.626,-1.0559 10.626,-11.55 0,-10.49376 -9.305,-11.02188 -9.305,-11.02188 L 152.796,3 c 0,0 -11.154,2.17813 -11.154,11.6809 0,9.5043 8.58,10.957 8.58,10.957 z" /><path
         id="path2790"
         style="fill:#040606;fill-opacity:1;fill-rule:nonzero;stroke:none;stroke-width:0.1"
         d="M 416.22,23.5789 403.817,5.57891 h 56.116 L 472.224,23.5789 H 416.22" /><path
         id="path2792"
         style="fill:#040606;fill-opacity:1;fill-rule:nonzero;stroke:none;stroke-width:0.1"
         d="M 326.886,23.5789 314.484,5.57891 H 370.6 l 12.291,17.99999 h -56.005" /><path
         id="path2794"
         style="fill:#040606;fill-opacity:1;fill-rule:nonzero;stroke:none;stroke-width:0.1"
         d="M 237.553,23.5789 225.15,5.57891 h 56.116 l 12.291,17.99999 h -56.004" /><path
         id="path2796"
         style="fill:#040606;fill-opacity:1;fill-rule:nonzero;stroke:none;stroke-width:0.1"
         d="M 204.224,23.5789 H 148.22 l -6.555,-9.5141 c 0.217,-4.13199 2.586,-6.80582 5.088,-8.48589 h 45.18 l 12.291,17.99999" /><path
         id="path2798"
         style="fill:#ffd700;fill-opacity:1;fill-rule:nonzero;stroke:none;stroke-width:0.1"
         d="M 124.492,295.834 145.54,327.318 0,282.922 154.03,270.187 124.492,295.834" /><path
         id="path2800"
         style="fill:none;stroke:#ffd700;stroke-width:6;stroke-linecap:round;stroke-linejoin:miter;stroke-miterlimit:10;stroke-dasharray:none;stroke-opacity:1"
         d="M 124.492,295.834 641,348.329" /><path
         id="path2802"
         style="fill:none;stroke:#ffd700;stroke-width:4;stroke-linecap:butt;stroke-linejoin:miter;stroke-miterlimit:10;stroke-dasharray:none;stroke-opacity:1"
         d="m 484.188,351.972 -16.419,-20.846 19.703,-18.419" /><path
         id="path2804"
         style="fill:none;stroke:#ffd700;stroke-width:4;stroke-linecap:butt;stroke-linejoin:miter;stroke-miterlimit:10;stroke-dasharray:none;stroke-opacity:1"
         d="m 496.834,353.227 -16.715,-20.918 19.988,-18.296" /><path
         id="path2806"
         style="fill:none;stroke:#ffd700;stroke-width:4;stroke-linecap:butt;stroke-linejoin:miter;stroke-miterlimit:10;stroke-dasharray:none;stroke-opacity:1"
         d="m 509.479,354.481 -17.01,-20.988 20.275,-18.175" /><path
         id="path2808"
         style="fill:none;stroke:#ffd700;stroke-width:4;stroke-linecap:butt;stroke-linejoin:miter;stroke-miterlimit:10;stroke-dasharray:none;stroke-opacity:1"
         d="M 522.126,355.735 504.819,334.676 525.38,316.624" /><path
         id="path2810"
         style="fill:none;stroke:#ffd700;stroke-width:4;stroke-linecap:butt;stroke-linejoin:miter;stroke-miterlimit:10;stroke-dasharray:none;stroke-opacity:1"
         d="M 534.772,356.989 517.17,335.858 538.016,317.929" /><path
         id="path2812"
         style="fill:none;stroke:#ffd700;stroke-width:4;stroke-linecap:butt;stroke-linejoin:miter;stroke-miterlimit:10;stroke-dasharray:none;stroke-opacity:1"
         d="m 547.418,358.244 -17.897,-21.202 21.131,-17.808" /><path
         id="path2814"
         style="fill:none;stroke:#ffd700;stroke-width:4;stroke-linecap:butt;stroke-linejoin:miter;stroke-miterlimit:10;stroke-dasharray:none;stroke-opacity:1"
         d="M 560.064,359.499 541.87,338.224 563.288,320.54" /><path
         id="path2816"
         style="fill:none;stroke:#ffd700;stroke-width:4;stroke-linecap:butt;stroke-linejoin:miter;stroke-miterlimit:10;stroke-dasharray:none;stroke-opacity:1"
         d="m 572.711,360.753 -18.49,-21.346 21.703,-17.562" /><path
         id="path2818"
         style="fill:none;stroke:#ffd700;stroke-width:4;stroke-linecap:butt;stroke-linejoin:miter;stroke-miterlimit:10;stroke-dasharray:none;stroke-opacity:1"
         d="m 585.357,362.008 -18.786,-21.417 21.989,-17.44" /><path
         id="path2820"
         style="fill:none;stroke:#ffd700;stroke-width:4;stroke-linecap:butt;stroke-linejoin:miter;stroke-miterlimit:10;stroke-dasharray:none;stroke-opacity:1"
         d="m 598.003,363.262 -19.081,-21.488 22.273,-17.318" /><path
         id="path2822"
         style="fill:none;stroke:#ffd700;stroke-width:4;stroke-linecap:butt;stroke-linejoin:miter;stroke-miterlimit:10;stroke-dasharray:none;stroke-opacity:1"
         d="m 610.649,364.516 -19.377,-21.56 22.56,-17.195" /><path
         id="path2824"
         style="fill:none;stroke:#ffd700;stroke-width:4;stroke-linecap:butt;stroke-linejoin:miter;stroke-miterlimit:10;stroke-dasharray:none;stroke-opacity:1"
         d="m 623.296,365.771 -19.674,-21.632 22.846,-17.072" /><path
         id="path2826"
         style="fill:none;stroke:#ffd700;stroke-width:4;stroke-linecap:butt;stroke-linejoin:miter;stroke-miterlimit:10;stroke-dasharray:none;stroke-opacity:1"
         d="m 635.942,367.025 -19.969,-21.702 23.131,-16.951" /><path
         id="path2828"
         style="fill:none;stroke:#ffd700;stroke-width:4;stroke-linecap:butt;stroke-linejoin:miter;stroke-miterlimit:10;stroke-dasharray:none;stroke-opacity:1"
         d="M 648.588,368.28 628.323,346.506 651.74,329.678" /><path
         id="path2830"
         style="fill:none;stroke:#ffd700;stroke-width:4;stroke-linecap:butt;stroke-linejoin:miter;stroke-miterlimit:10;stroke-dasharray:none;stroke-opacity:1"
         d="m 661.234,369.534 -20.56,-21.845 23.702,-16.706" /><path
         id="path2832"
         style="fill:none;stroke:#ffd700;stroke-width:4;stroke-linecap:round;stroke-linejoin:miter;stroke-miterlimit:10;stroke-dasharray:none;stroke-opacity:1"
         d="m 484.188,351.972 177.046,17.562" /><path
         id="path2834"
         style="fill:none;stroke:#ffd700;stroke-width:4;stroke-linecap:round;stroke-linejoin:miter;stroke-miterlimit:10;stroke-dasharray:none;stroke-opacity:1"
         d="m 487.472,312.707 176.904,18.276" /><path
         id="path2836"
         style="fill:#e7e6e6;fill-opacity:1;fill-rule:nonzero;stroke:none;stroke-width:0.1"
         d="m 355.088,34.7281 h 38.6 l -76.81,79.7989 -24.904,-8.206"
         sodipodi:nodetypes="cccc" /><path
         id="path2838"
         style="fill:none;stroke:#040606;stroke-width:6;stroke-linecap:butt;stroke-linejoin:miter;stroke-miterlimit:10;stroke-dasharray:none;stroke-opacity:1"
         d="m 249.037,92.173 34.18,-57.4449 h 110.471 l -76.81,79.7989 z" /><path
         id="path2840"
         style="fill:none;stroke:#040606;stroke-width:6;stroke-linecap:butt;stroke-linejoin:miter;stroke-miterlimit:10;stroke-dasharray:none;stroke-opacity:1"
         d="M 291.974,106.321 355.088,34.7281" /><path
         id="path2842"
         style="fill:#ffd700;fill-opacity:1;fill-rule:nonzero;stroke:none;stroke-width:0.1"
         d="m 243.318,102.31 69.401,21.315 c 0,0 6.628,0.519 8.058,-2.34 1.43,-2.859 -3.379,-4.939 -3.639,-5.849 -0.26,-0.909 -71.48,-22.8731 -71.48,-22.8731 0,0 -5.069,-0.1309 -5.849,2.4691 -0.78,2.6 3.509,7.278 3.509,7.278" /><path
         id="path2844"
         style="fill:none;stroke:#040606;stroke-width:6;stroke-linecap:butt;stroke-linejoin:round;stroke-miterlimit:10;stroke-dasharray:none;stroke-opacity:1"
         d="m 243.318,102.31 69.401,21.315 c 0,0 6.628,0.519 8.058,-2.34 1.43,-2.859 -3.379,-4.939 -3.639,-5.849 -0.26,-0.909 -71.48,-22.8731 -71.48,-22.8731 0,0 -5.069,-0.1309 -5.849,2.4691 -0.78,2.6 3.509,7.278 3.509,7.278 z" /><path
         id="path2846"
         style="fill:#231f20;fill-opacity:1;fill-rule:nonzero;stroke:none;stroke-width:0.1"
         d="m 314.655,97.6699 c 0,1.9571 -1.586,3.5431 -3.543,3.5431 -1.957,0 -3.543,-1.586 -3.543,-3.5431 0,-1.9578 1.586,-3.5437 3.543,-3.5437 1.957,0 3.543,1.5859 3.543,3.5437" /><path
         id="path2848"
         style="fill:#231f20;fill-opacity:1;fill-rule:nonzero;stroke:none;stroke-width:0.1"
         d="m 326.881,84.6328 c 0,1.957 -1.586,3.5434 -3.543,3.5434 -1.957,0 -3.543,-1.5864 -3.543,-3.5434 0,-1.9578 1.586,-3.5437 3.543,-3.5437 1.957,0 3.543,1.5859 3.543,3.5437" /><path
         id="path2850"
         style="fill:#231f20;fill-opacity:1;fill-rule:nonzero;stroke:none;stroke-width:0.1"
         d="m 339.107,71.5961 c 0,1.957 -1.586,3.5418 -3.543,3.5418 -1.957,0 -3.543,-1.5848 -3.543,-3.5418 0,-1.9582 1.586,-3.5441 3.543,-3.5441 1.957,0 3.543,1.5859 3.543,3.5441" /><path
         id="path2852"
         style="fill:#231f20;fill-opacity:1;fill-rule:nonzero;stroke:none;stroke-width:0.1"
         d="m 351.333,58.5578 c 0,1.957 -1.587,3.5434 -3.543,3.5434 -1.957,0 -3.544,-1.5864 -3.544,-3.5434 0,-1.9578 1.587,-3.5437 3.544,-3.5437 1.956,0 3.543,1.5859 3.543,3.5437" /><path
         id="path2854"
         style="fill:#231f20;fill-opacity:1;fill-rule:nonzero;stroke:none;stroke-width:0.1"
         d="m 363.559,45.5211 c 0,1.957 -1.587,3.543 -3.543,3.543 -1.957,0 -3.544,-1.586 -3.544,-3.543 0,-1.9582 1.587,-3.5441 3.544,-3.5441 1.956,0 3.543,1.5859 3.543,3.5441" /><path
         id="path2856"
         style="fill:#b1aeae;fill-opacity:1;fill-rule:nonzero;stroke:none;stroke-width:0.1"
         d="m 249.037,155.185 c 0,0 -20.144,-27.163 -18.845,-29.372 1.299,-2.209 12.347,-22.223 12.347,-22.223 l 69.53,21.054 0.91,11.956 -48.867,5.589 -15.075,12.996" /><path
         id="path2858"
         style="fill:none;stroke:#040606;stroke-width:6;stroke-linecap:butt;stroke-linejoin:miter;stroke-miterlimit:10;stroke-dasharray:none;stroke-opacity:1"
         d="m 249.037,155.185 c 0,0 -20.144,-27.163 -18.845,-29.372 1.299,-2.209 12.347,-22.223 12.347,-22.223 l 69.53,21.054 0.91,11.956 -48.867,5.589 z" /><path
         id="path2860"
         style="fill:#ffd700;fill-opacity:1;fill-rule:nonzero;stroke:none;stroke-width:0.1"
         d="m 248.517,158.305 c 0,0 -2.989,4.939 0.52,6.888 3.508,1.949 6.888,0 6.888,0 l 12.866,-14.686 48.217,-6.369 c 0,0 8.058,-0.518 8.188,-4.028 0.13,-3.51 -10.541,-4.159 -10.541,-4.159 l -50.543,6.238 -15.595,16.116" /><path
         id="path2862"
         style="fill:none;stroke:#040606;stroke-width:6;stroke-linecap:butt;stroke-linejoin:round;stroke-miterlimit:10;stroke-dasharray:none;stroke-opacity:1"
         d="m 248.517,158.305 c 0,0 -2.989,4.939 0.52,6.888 3.508,1.949 6.888,0 6.888,0 l 12.866,-14.686 48.217,-6.369 c 0,0 8.058,-0.518 8.188,-4.028 0.13,-3.51 -10.541,-4.159 -10.541,-4.159 l -50.543,6.238 z" /><path
         id="path2864"
         style="fill:#e7e6e6;fill-opacity:1;fill-rule:nonzero;stroke:none;stroke-width:0.1"
         d="m 317.008,144.138 60.325,103.524 -27.754,19.143 -80.788,-116.298 48.217,-6.369" /><path
         id="path2866"
         style="fill:none;stroke:#231f20;stroke-width:5;stroke-linecap:round;stroke-linejoin:round;stroke-miterlimit:10;stroke-dasharray:none;stroke-opacity:1"
         d="m 317.008,144.138 60.325,103.524 -27.754,19.143 -80.788,-116.298 z" /><path
         id="path2868"
         style="fill:#231f20;fill-opacity:1;fill-rule:nonzero;stroke:none;stroke-width:0.1"
         d="m 356.49,250.434 c 0,1.957 -1.586,3.543 -3.543,3.543 -1.957,0 -3.543,-1.586 -3.543,-3.543 0,-1.957 1.586,-3.543 3.543,-3.543 1.957,0 3.543,1.586 3.543,3.543" /><path
         id="path2870"
         style="fill:#231f20;fill-opacity:1;fill-rule:nonzero;stroke:none;stroke-width:0.1"
         d="m 346.685,236.532 c 0,1.957 -1.585,3.543 -3.542,3.543 -1.957,0 -3.543,-1.586 -3.543,-3.543 0,-1.957 1.586,-3.544 3.543,-3.544 1.957,0 3.542,1.587 3.542,3.544" /><path
         id="path2872"
         style="fill:#231f20;fill-opacity:1;fill-rule:nonzero;stroke:none;stroke-width:0.1"
         d="m 336.88,222.629 c 0,1.957 -1.587,3.543 -3.544,3.543 -1.957,0 -3.543,-1.586 -3.543,-3.543 0,-1.957 1.586,-3.543 3.543,-3.543 1.957,0 3.544,1.586 3.544,3.543" /><path
         id="path2874"
         style="fill:#231f20;fill-opacity:1;fill-rule:nonzero;stroke:none;stroke-width:0.1"
         d="m 327.074,208.727 c 0,1.957 -1.587,3.543 -3.543,3.543 -1.957,0 -3.544,-1.586 -3.544,-3.543 0,-1.957 1.587,-3.543 3.544,-3.543 1.956,0 3.543,1.586 3.543,3.543" /><path
         id="path2876"
         style="fill:#231f20;fill-opacity:1;fill-rule:nonzero;stroke:none;stroke-width:0.1"
         d="m 317.269,194.825 c 0,1.957 -1.587,3.542 -3.543,3.542 -1.957,0 -3.544,-1.585 -3.544,-3.542 0,-1.958 1.587,-3.543 3.544,-3.543 1.956,0 3.543,1.585 3.543,3.543" /><path
         id="path2878"
         style="fill:#231f20;fill-opacity:1;fill-rule:nonzero;stroke:none;stroke-width:0.1"
         d="m 307.463,180.923 c 0,1.957 -1.587,3.543 -3.543,3.543 -1.957,0 -3.544,-1.586 -3.544,-3.543 0,-1.957 1.587,-3.543 3.544,-3.543 1.956,0 3.543,1.586 3.543,3.543" /><path
         id="path2880"
         style="fill:#231f20;fill-opacity:1;fill-rule:nonzero;stroke:none;stroke-width:0.1"
         d="m 297.658,167.02 c 0,1.957 -1.587,3.543 -3.543,3.543 -1.957,0 -3.544,-1.586 -3.544,-3.543 0,-1.957 1.587,-3.543 3.544,-3.543 1.956,0 3.543,1.586 3.543,3.543" /><path
         id="path2882"
         style="fill:#948e8e;fill-opacity:1;fill-rule:nonzero;stroke:none;stroke-width:0.1"
         d="m 338.5,275.995 -82,-109.936 12.291,-15.552 81.247,115.989" /><path
         id="path2884"
         style="fill:#b1aeae;stroke:#040606;stroke-width:6;stroke-linecap:round;stroke-linejoin:round;stroke-miterlimit:10;stroke-dasharray:none;stroke-opacity:1;fill-opacity:1"
         d="m 338.5,275.995 -82,-109.936 12.291,-15.552 81.247,115.989" /><path
         id="path2886"
         style="fill:#ffd700;fill-opacity:1;fill-rule:nonzero;stroke:none;stroke-width:0.1"
         d="m 338.5,276.657 c 0,0 -0.666,2.166 1.667,4.666 2.333,2.5 4.5,2 4.5,2 l 38.079,-23.166 c 0,0 2.921,-3.667 2.254,-7.167 -0.667,-3.5 -6.667,-4.333 -6.667,-4.333 0,0 -42.166,25.344 -39.833,27.338" /><path
         id="path2888"
         style="fill:none;stroke:#040606;stroke-width:6;stroke-linecap:round;stroke-linejoin:round;stroke-miterlimit:10;stroke-dasharray:none;stroke-opacity:1"
         d="m 338.5,276.657 c 0,0 -0.666,2.166 1.667,4.666 2.333,2.5 4.5,2 4.5,2 l 38.079,-23.166 c 0,0 2.921,-3.667 2.254,-7.167 -0.667,-3.5 -6.667,-4.333 -6.667,-4.333 0,0 -42.166,25.344 -39.833,27.338" /><path
         id="path2890"
         style="fill:#e7e6e6;fill-opacity:1;fill-rule:nonzero;stroke:none;stroke-width:0.1"
         d="m 383.251,259.439 c 0,0 19.149,20.909 23.647,22.575 4.498,1.666 15.327,13.659 16.326,16.158 0.999,2.499 5.663,9.995 5.83,12.327 l -1.166,18.99 c 0,0 -4.165,8.83 -10.495,12.827 -6.33,3.998 -18.657,1.166 -18.657,1.166 0,0 -9.163,6.163 -18.491,-6.83 0,0 -8.328,7.163 -15.158,-3.165 0,0 -13.51,0.333 -17.916,-12.66 -4.406,-12.993 2.021,-36.2 -2.074,-37.463 l 38.154,-23.925" /><path
         id="path2892"
         style="fill:none;stroke:#231f20;stroke-width:5;stroke-linecap:round;stroke-linejoin:round;stroke-miterlimit:10;stroke-dasharray:none;stroke-opacity:1"
         d="m 383.251,259.439 c 0,0 19.149,20.909 23.647,22.575 4.498,1.666 15.327,13.659 16.326,16.158 0.999,2.499 5.663,9.995 5.83,12.327 l -1.166,18.99 c 0,0 -4.165,8.83 -10.495,12.827 -6.33,3.998 -18.657,1.166 -18.657,1.166 0,0 -9.163,6.163 -18.491,-6.83 0,0 -8.328,7.163 -15.158,-3.165 0,0 -13.51,0.333 -17.916,-12.66 -4.406,-12.993 2.021,-36.2 -2.074,-37.463 z" /><path
         id="path2894"
         style="fill:#e7e6e6;fill-opacity:1;fill-rule:nonzero;stroke:none;stroke-width:0.1"
         d="m 347.171,316.663 c 0,0 10.754,-17.658 18.749,-16.658 7.995,0.999 4.331,4.497 4.331,4.497 l -6.497,27.838 c 0,0 -14.343,2.48 -16.583,-15.677" /><path
         id="path2896"
         style="fill:none;stroke:#231f20;stroke-width:5;stroke-linecap:round;stroke-linejoin:round;stroke-miterlimit:10;stroke-dasharray:none;stroke-opacity:1"
         d="m 347.171,316.663 c 0,0 10.754,-17.658 18.749,-16.658 7.995,0.999 4.331,4.497 4.331,4.497 l -6.497,27.838 c 0,0 -14.343,2.48 -16.583,-15.677 z" /><path
         id="path2898"
         style="fill:none;stroke:#ffd700;stroke-width:6;stroke-linecap:butt;stroke-linejoin:miter;stroke-miterlimit:10;stroke-dasharray:none;stroke-opacity:1"
         d="m 393.337,323.275 44.404,4.396" /><path
         id="path2900"
         style="fill:#e7e6e6;fill-opacity:1;fill-rule:nonzero;stroke:none;stroke-width:0.1"
         d="m 380.245,336.652 c 0,0 3.666,-26.652 12.161,-32.483 0,0 4.997,-3.165 9.828,6.33 0,0 0.334,24.654 -3.498,32.983 0,0 -10.496,5.997 -18.491,-6.83" /><path
         id="path2902"
         style="fill:none;stroke:#231f20;stroke-width:5;stroke-linecap:round;stroke-linejoin:round;stroke-miterlimit:10;stroke-dasharray:none;stroke-opacity:1"
         d="m 380.245,336.652 c 0,0 3.666,-26.652 12.161,-32.483 0,0 4.997,-3.165 9.828,6.33 0,0 0.334,24.654 -3.498,32.983 0,0 -10.496,5.997 -18.491,-6.83 z" /><path
         id="path2904"
         style="fill:#e7e6e6;fill-opacity:1;fill-rule:nonzero;stroke:none;stroke-width:0.1"
         d="m 393.395,303.791 c -0.178,-15.037 -22.306,-0.128 -22.306,-0.128 l -7.335,28.677 c 0,0 5.173,10.747 16.491,4.312 0,0 4.543,-28.515 10.998,-31.525 6.455,-3.011 2.152,-1.336 2.152,-1.336" /><path
         id="path2906"
         style="fill:none;stroke:#231f20;stroke-width:5;stroke-linecap:round;stroke-linejoin:round;stroke-miterlimit:10;stroke-dasharray:none;stroke-opacity:1"
         d="m 393.395,303.791 c -0.178,-15.037 -22.306,-0.128 -22.306,-0.128 l -7.335,28.677 c 0,0 5.173,10.747 16.491,4.312 0,0 4.543,-28.515 10.998,-31.525 6.455,-3.011 2.152,-1.336 2.152,-1.336 z" /></g></g></svg>
